<svg width="52" height="52" viewBox="0 0 52 52" fill="none" xmlns="http://www.w3.org/2000/svg">
<path d="M24.4316 51.2121C23.7543 51.0706 23.2052 50.6253 22.9252 49.9894L21.6119 47.0126L19.2168 49.2149C18.7058 49.6848 18.0244 49.8731 17.347 49.7324C16.4341 49.5417 15.7569 48.7917 15.6629 47.8656L15.3335 44.6287L12.3753 45.9827C11.9576 46.1741 11.5027 46.2261 11.0596 46.1335C10.5071 46.0181 10.0125 45.6792 9.70375 45.2034C9.39563 44.7286 9.29177 44.159 9.41244 43.6004L10.0998 40.4201L6.86807 40.7937C6.63724 40.8206 6.40705 40.81 6.1836 40.7634C5.52014 40.6248 4.95812 40.1688 4.67979 39.5436C4.39998 38.9142 4.43831 38.2106 4.78591 37.6131L6.42185 34.801L3.21775 34.155C2.42803 33.99 1.80854 33.4038 1.59915 32.6245C1.39052 31.8454 1.63405 31.0274 2.23519 30.4893L4.66 28.3203L1.82553 26.7228C1.12027 26.3255 0.70671 25.5755 0.746249 24.7668C0.785788 23.958 1.27015 23.2526 2.01162 22.9258L4.98846 21.6125L2.78617 19.2174C2.23821 18.6214 2.07595 17.7809 2.36342 17.024C2.6509 16.267 3.32994 15.746 4.13542 15.6634L7.37234 15.334L6.01764 12.3756C5.68214 11.6419 5.78563 10.7946 6.28944 10.1643C6.79248 9.53382 7.59557 9.24474 8.3853 9.40968L11.5801 10.1001L11.2065 6.86829C11.1273 6.18089 11.373 5.52063 11.882 5.05671C12.3873 4.59522 13.0858 4.40169 13.7485 4.5401C13.9719 4.58677 14.1869 4.67001 14.3879 4.78625L17.1999 6.42219L17.8429 3.23258C17.956 2.67239 18.2783 2.19186 18.7515 1.88019C19.2249 1.56776 19.813 1.45501 20.3663 1.57057C20.8094 1.66311 21.2062 1.89294 21.5116 2.23545L23.6806 4.66028L25.278 1.82576C25.7349 1.01474 26.6556 0.59848 27.5686 0.789156C28.2458 0.930605 28.7949 1.37592 29.0749 2.01183L30.3882 4.9887L32.7833 2.78636C33.2943 2.31648 33.9759 2.1274 34.6531 2.26885C35.5661 2.45953 36.2432 3.20951 36.3373 4.13561L36.6666 7.37258L39.6248 6.0186C40.0425 5.82713 40.4974 5.77519 40.9405 5.86773C41.493 5.98313 41.9876 6.32203 42.2964 6.79781C42.6052 7.27282 42.7083 7.84222 42.5877 8.40081L41.9003 11.5811L45.132 11.2075C45.3629 11.1807 45.5931 11.1912 45.8165 11.2379C46.48 11.3765 47.042 11.8325 47.3202 12.4584C47.6 13.0879 47.5616 13.7914 47.214 14.3889L45.5781 17.201L48.7822 17.8471C49.5712 18.0118 50.1914 18.5982 50.4008 19.3775C50.6094 20.1566 50.3659 20.9746 49.7648 21.5128L47.3392 23.6816L50.1737 25.279C50.8789 25.6763 51.2925 26.4264 51.2529 27.2351C51.2134 28.0438 50.729 28.7493 49.9876 29.076L47.0107 30.3894L49.213 32.7844C49.761 33.3804 49.9232 34.2209 49.6358 34.9779C49.3483 35.7349 48.6692 36.2559 47.8638 36.3384L44.6268 36.6678L45.9815 39.6262C46.3171 40.36 46.2136 41.2072 45.7098 41.8376C45.2067 42.468 44.4036 42.7571 43.6139 42.5922L40.4191 41.9017L40.7926 45.1336C40.8719 45.821 40.6262 46.4812 40.1172 46.9451C39.6119 47.4066 38.9134 47.6002 38.2507 47.4618C38.0273 47.4151 37.8121 47.3326 37.6113 47.2156L34.7993 45.5797L34.1562 48.7693C34.0432 49.3295 33.7209 49.81 33.2477 50.1217C32.7743 50.4341 32.1861 50.5468 31.6329 50.4313C31.1898 50.3387 30.793 50.1089 30.4868 49.7662L28.3179 47.3414L26.7204 50.1759C26.2635 50.987 25.3428 51.4032 24.4299 51.2125L24.4316 51.2121Z" fill="#EB1C24"/>
</svg>
